<svg version="1.1" id="Layer_1" xmlns="http://www.w3.org/2000/svg" xmlns:xlink="http://www.w3.org/1999/xlink" x="0px" y="0px" viewBox="0 0 54 54" width="100%" height="100%" xml:space="preserve">
	<style type="text/css">
		.st0{fill:#FFFFFF;}
	</style>
	<path transform="translate(-31 -31) scale(2.15)" class="st0" d="M37.7,25.5H20.1l6.7-6.5c0,0,0,0,0.1-0.1c0.6-0.6,0.5-1.5-0.1-2.1c-0.3-0.3-0.7-0.4-1.1-0.4
	c-0.4,0-0.8,0.2-1.1,0.4l-9.3,9c0,0,0,0-0.1,0.1c-0.6,0.6-0.5,1.5,0.1,2.1l9.3,9c0.6,0.6,1.6,0.6,2.2,0c0,0,0,0,0,0
	c0.6-0.6,0.6-1.5,0-2.1l-6.7-6.5h17.6c0.8,0,1.5-0.7,1.5-1.5C39.2,26.2,38.5,25.5,37.7,25.5z" />
</svg>
