<svg id="Icon_-_Bin" data-name="Icon - Bin" xmlns="http://www.w3.org/2000/svg" width="100%" height="100%" viewBox="0 0 19.419 22.489">
	<g id="trash">
		<path id="Path_8707" data-name="Path 8707" d="M82.358,35.193H77.569V34a2,2,0,0,0-2-2H71.582a2,2,0,0,0-2,2v1.2H64.8a.8.8,0,1,0,0,1.6h.848L66.594,52a2.406,2.406,0,0,0,2.394,2.349h9.179A2.4,2.4,0,0,0,80.562,52l.948-15.215h.848a.8.8,0,0,0,0-1.6ZM70.414,51.156h-.028a.8.8,0,0,1-.8-.77l-.4-11.174a.8.8,0,1,1,1.6-.057l.4,11.174a.8.8,0,0,1-.77.827Zm3.962-.8a.8.8,0,1,1-1.6,0V39.183a.8.8,0,1,1,1.6,0Zm1.6-15.165H71.183V34a.395.395,0,0,1,.4-.4h3.991a.395.395,0,0,1,.4.4Zm1.6,15.193a.8.8,0,0,1-.8.77h-.029a.8.8,0,0,1-.769-.827l.4-11.174a.8.8,0,0,1,1.6.057Z" transform="translate(-64 -32)" fill="green" />
	</g>
</svg>
