<svg id="Icon_-_Calendar" data-name="Icon - Calendar" xmlns="http://www.w3.org/2000/svg" width="100%" height="100%" viewBox="0 0 24.605 24.605">
  <rect id="Rectangle_1988" data-name="Rectangle 1988" width="24" height="24" transform="translate(0.303 0.303)" fill="#7a49a0" opacity="0"/>
  <g id="Group_7250" data-name="Group 7250">
    <path id="Path_8661" data-name="Path 8661" d="M21.09,1.758h-.879V.879a.879.879,0,0,0-1.758,0v.879H6.151V.879a.879.879,0,0,0-1.758,0v.879H3.515A3.518,3.518,0,0,0,0,5.273V21.09a3.518,3.518,0,0,0,3.515,3.515H21.09a3.518,3.518,0,0,0,3.515-3.515V5.273A3.518,3.518,0,0,0,21.09,1.758ZM22.848,21.09a1.763,1.763,0,0,1-1.758,1.758H3.515A1.763,1.763,0,0,1,1.758,21.09V9.666A1.89,1.89,0,0,1,3.515,7.909H21.09a1.89,1.89,0,0,1,1.758,1.758Z" fill="#7a49a0"/>
    <circle id="Ellipse_46" data-name="Ellipse 46" cx="1" cy="1" r="1" transform="translate(13.303 10.303)" fill="#7a49a0"/>
    <circle id="Ellipse_47" data-name="Ellipse 47" cx="1" cy="1" r="1" transform="translate(17.303 10.303)" fill="#7a49a0"/>
    <circle id="Ellipse_48" data-name="Ellipse 48" cx="1" cy="1" r="1" transform="translate(13.303 14.303)" fill="#7a49a0"/>
    <circle id="Ellipse_49" data-name="Ellipse 49" cx="1" cy="1" r="1" transform="translate(17.303 14.303)" fill="#7a49a0"/>
    <circle id="Ellipse_50" data-name="Ellipse 50" cx="1" cy="1" r="1" transform="translate(5.303 14.303)" fill="#7a49a0"/>
    <circle id="Ellipse_51" data-name="Ellipse 51" cx="1" cy="1" r="1" transform="translate(9.303 14.303)" fill="#7a49a0"/>
    <circle id="Ellipse_52" data-name="Ellipse 52" cx="1" cy="1" r="1" transform="translate(5.303 19.303)" fill="#7a49a0"/>
    <circle id="Ellipse_53" data-name="Ellipse 53" cx="1" cy="1" r="1" transform="translate(9.303 19.303)" fill="#7a49a0"/>
    <circle id="Ellipse_54" data-name="Ellipse 54" cx="1" cy="1" r="1" transform="translate(13.303 19.303)" fill="#7a49a0"/>
  </g>
</svg>
