<svg xmlns="http://www.w3.org/2000/svg" width="100%" height="100%" viewBox="0 0 28.52 22.409">
	<defs>
		<style>
			.a{fill:#7a49a0;}
		</style>
	</defs>
	<path class="a" d="M32,231.8a3.565,3.565,0,0,0,3.565,3.565h21.39A3.565,3.565,0,0,0,60.52,231.8V222H32Zm4.2-4.838a1.91,1.91,0,0,1,1.91-1.91h3.056a1.91,1.91,0,0,1,1.91,1.91v1.273a1.91,1.91,0,0,1-1.91,1.91H38.111a1.91,1.91,0,0,1-1.91-1.91Z" transform="translate(-32 -212.96)" />
	<path class="a" d="M56.955,80H35.565A3.565,3.565,0,0,0,32,83.565V85.22H60.52V83.565A3.565,3.565,0,0,0,56.955,80Z" transform="translate(-32 -80)" />
</svg>
