<svg xmlns="http://www.w3.org/2000/svg" width="100%" height="100%" viewBox="0 0 31.212 27.945">
	<defs>
		<style>
			.a{fill:#7a49a0;}
		</style>
	</defs>
	<ellipse class="a" cx="2" cy="2.5" rx="2" ry="2.5" transform="translate(8.479 22.945)" />
	<ellipse class="a" cx="2" cy="2.5" rx="2" ry="2.5" transform="translate(24.479 22.945)" />
	<path class="a" d="M62.816,68.119a1.735,1.735,0,0,0-1.346-.637H39.391l-.445-2.523A1.161,1.161,0,0,0,37.8,64H33.161a1.161,1.161,0,0,0,0,2.321H36.83l3.312,18.772a1.161,1.161,0,0,0,1.143.959H59.856a1.161,1.161,0,0,0,0-2.321h-17.6L41.85,81.41H59.38a1.746,1.746,0,0,0,1.709-1.4l2.089-10.446A1.741,1.741,0,0,0,62.816,68.119Z" transform="translate(-32 -64)" />
</svg>
