<svg id="Icon_-_Category" data-name="Icon - Category" xmlns="http://www.w3.org/2000/svg" width="100%" height="100%" viewBox="0 0 25.349 17.218">
  <rect id="Rectangle_1966" data-name="Rectangle 1966" width="25" height="16" transform="translate(0.031 0.537)" fill="#7a49a0" opacity="0"/>
  <g id="Group_7218" data-name="Group 7218">
    <g id="Group_7212" data-name="Group 7212" transform="translate(5.261 0.478)">
      <path id="Path_8647" data-name="Path 8647" d="M106.653,10.87H89.435a1.435,1.435,0,1,1,0-2.87h17.218a1.435,1.435,0,1,1,0,2.87Z" transform="translate(-88 -8)" fill="#7a49a0"/>
    </g>
    <g id="Group_7213" data-name="Group 7213" transform="translate(5.261 7.174)">
      <path id="Path_8648" data-name="Path 8648" d="M106.653,122.87H89.435a1.435,1.435,0,1,1,0-2.87h17.218a1.435,1.435,0,1,1,0,2.87Z" transform="translate(-88 -120)" fill="#7a49a0"/>
    </g>
    <g id="Group_7214" data-name="Group 7214" transform="translate(5.261 13.87)">
      <path id="Path_8649" data-name="Path 8649" d="M106.653,234.87H89.435a1.435,1.435,0,1,1,0-2.87h17.218a1.435,1.435,0,1,1,0,2.87Z" transform="translate(-88 -232)" fill="#7a49a0"/>
    </g>
    <g id="Group_7215" data-name="Group 7215">
      <path id="Path_8650" data-name="Path 8650" d="M1.913,3.826A1.913,1.913,0,1,1,3.826,1.913,1.919,1.919,0,0,1,1.913,3.826Zm0-1.913Z" fill="#7a49a0"/>
    </g>
    <g id="Group_7216" data-name="Group 7216" transform="translate(0 6.696)">
      <path id="Path_8651" data-name="Path 8651" d="M1.913,115.826a1.913,1.913,0,1,1,1.913-1.913A1.919,1.919,0,0,1,1.913,115.826Zm0-1.913Z" transform="translate(0 -112)" fill="#7a49a0"/>
    </g>
    <g id="Group_7217" data-name="Group 7217" transform="translate(0 13.392)">
      <path id="Path_8652" data-name="Path 8652" d="M1.913,227.826a1.913,1.913,0,1,1,1.913-1.913A1.919,1.919,0,0,1,1.913,227.826Zm0-1.913Z" transform="translate(0 -224)" fill="#7a49a0"/>
    </g>
  </g>
</svg>
