<svg id="Icon_-_Check_Circle" data-name="Icon - Check Circle" xmlns="http://www.w3.org/2000/svg" width="100%" height="100%" viewBox="0 0 27.2 28">
	<rect id="Rectangle_2012" data-name="Rectangle 2012" width="27" height="28" fill="#fff" opacity="0" />
	<g id="Group_7293" data-name="Group 7293" transform="translate(0 0.523)">
		<g id="Path_8664_1_" transform="translate(6.644 8.092)">
			<path id="Path_8671" data-name="Path 8671" d="M20.914,31.111a1.134,1.134,0,0,1-.874-.375l-3.372-3.331a1.244,1.244,0,0,1-.042-1.749l.042-.042a1.256,1.256,0,0,1,1.79,0l2.415,2.373L27.825,20.2a1.3,1.3,0,0,1,1.79-.125,1.246,1.246,0,0,1,.125,1.749v.042l-7.869,8.826a1.355,1.355,0,0,1-.958.416Z" transform="translate(-16.287 -19.777)" fill="#7a49a0" />
		</g>
		<g id="Group_7292" data-name="Group 7292">
			<path id="Path_8672" data-name="Path 8672" d="M13.6,27.2A13.6,13.6,0,1,1,27.2,13.6,13.613,13.613,0,0,1,13.6,27.2Zm0-24.727A11.127,11.127,0,1,0,24.727,13.6,11.133,11.133,0,0,0,13.6,2.473Z" fill="#7a49a0" />
		</g>
	</g>
</svg>
