<svg id="Icon_-_Cross_Circle" data-name="Icon - Cross Circle" xmlns="http://www.w3.org/2000/svg" width="100%" height="100%" viewBox="0 0 27.2 28">
  <rect id="Rectangle_2012" data-name="Rectangle 2012" width="100%" height="100%" fill="#fff" opacity="0"/>
  <g id="Group_7293" data-name="Group 7293" transform="translate(0 0.523)">
    <g id="Group_7292" data-name="Group 7292">
      <path id="Path_8672" data-name="Path 8672" d="M13.6,27.2A13.6,13.6,0,1,1,27.2,13.6,13.613,13.613,0,0,1,13.6,27.2Zm0-24.727A11.127,11.127,0,1,0,24.727,13.6,11.133,11.133,0,0,0,13.6,2.473Z" fill="#7a49a0"/>
    </g>
    <g id="Icon_-_Plus_no_circle_" data-name="Icon - Plus (no circle)" transform="translate(4.008 13.657) rotate(-45)">
      <rect id="Rectangle_2003" data-name="Rectangle 2003" width="13.38" height="13.38" fill="#7a49a0" opacity="0"/>
      <g id="Group_7274" data-name="Group 7274">
        <g id="Group_7273" data-name="Group 7273">
          <path id="Path_8666" data-name="Path 8666" d="M112.235,105.545h-4.4v-4.4a1.145,1.145,0,1,0-2.29,0v4.4h-4.4a1.145,1.145,0,1,0,0,2.29h4.4v4.4a1.145,1.145,0,0,0,2.29,0v-4.4h4.4a1.145,1.145,0,0,0,0-2.29Z" transform="translate(-100 -100)" fill="#7a49a0"/>
        </g>
      </g>
    </g>
  </g>
</svg>
