<svg id="Icon_-_Pencil" data-name="Icon - Pencil" xmlns="http://www.w3.org/2000/svg" width="100%" height="100%" viewBox="0 0 22 22">
  <rect id="Rectangle_2070" data-name="Rectangle 2070" width="22" height="22" fill="#7a49a0" opacity="0"/>
  <g id="Group_7375" data-name="Group 7375" transform="translate(0.001)">
    <path id="Path_8710" data-name="Path 8710" d="M14.117,23.659a.965.965,0,0,0-1.357,0L1.682,34.677A2.652,2.652,0,0,0,1,36.309v2.836a.96.96,0,0,0,.958.957H4.809a2.663,2.663,0,0,0,1.634-.677L17.492,28.377a.959.959,0,0,0,0-1.353Z" transform="translate(-1.003 -18.43)" fill="#7a49a0"/>
    <path id="Path_8711" data-name="Path 8711" d="M62.726,5.418a.962.962,0,0,1,0-1.355l2.767-2.782a.959.959,0,0,1,1.353,0l3.406,3.4a.953.953,0,0,1,0,1.35l-2.788,2.76a.967.967,0,0,1-1.358,0Z" transform="translate(-48.859 -1.001)" fill="#7a49a0"/>
  </g>
</svg>
