<svg xmlns="http://www.w3.org/2000/svg" width="100%" height="100%" viewBox="0 0 26.824 26.824"><defs><style>.a{fill:#7a49a0;}</style></defs><path class="a" d="M77.412,64A13.412,13.412,0,1,0,90.824,77.412,13.416,13.416,0,0,0,77.412,64Zm-.419,21.236a1.4,1.4,0,1,1,1.4-1.4A1.4,1.4,0,0,1,76.993,85.236Zm2.336-7.125a2.321,2.321,0,0,0-1.288,2.1.978.978,0,0,1-1.956,0,4.3,4.3,0,0,1,2.153-3.72c1.347-.9,2.108-1.477,2.108-2.736a2.18,2.18,0,0,0-1.5-1.988,3.668,3.668,0,0,0-1.421-.216,3.049,3.049,0,0,0-1.944.6,2.5,2.5,0,0,0-1,1.564.979.979,0,1,1-1.956-.094,4.336,4.336,0,0,1,1.73-2.99A4.98,4.98,0,0,1,77.4,69.593,5.475,5.475,0,0,1,79.682,70a4.1,4.1,0,0,1,2.62,3.75C82.3,76.113,80.722,77.174,79.329,78.111Z" transform="translate(-64 -64)"/></svg>
