<svg xmlns="http://www.w3.org/2000/svg" width="100%" height="100%" viewBox="0 0 17.973 16.775">
	<defs>
		<style>
			.a{fill:#fff;}
		</style>
	</defs>
	<g transform="translate(-16 -32)">
		<path class="a" d="M71.3,99.144a.3.3,0,0,0-.414,0l-6.893,6.585a.3.3,0,0,0-.092.217v6.181a1.2,1.2,0,0,0,1.2,1.2h3.6a.6.6,0,0,0,.6-.6v-5.092a.3.3,0,0,1,.3-.3h3a.3.3,0,0,1,.3.3v5.092a.6.6,0,0,0,.6.6h3.6a1.2,1.2,0,0,0,1.2-1.2v-6.181a.3.3,0,0,0-.092-.217Z" transform="translate(-46.107 -64.55)" />
		<path class="a" d="M33.782,39.944l-2.8-2.68V33.2a.6.6,0,0,0-.6-.6h-1.8a.6.6,0,0,0-.6.6v1.2l-2.169-2.074A1.166,1.166,0,0,0,24.986,32h0a1.162,1.162,0,0,0-.829.323l-7.964,7.62a.611.611,0,0,0-.05.838.6.6,0,0,0,.868.04L24.78,33.4a.3.3,0,0,1,.414,0l7.77,7.424a.6.6,0,0,0,.846-.016A.614.614,0,0,0,33.782,39.944Z" transform="translate(0)" />
	</g>
</svg>
