<svg id="Icon_-_Language" data-name="Icon - Language" xmlns="http://www.w3.org/2000/svg" width="100%" height="100%" viewBox="0 0 20.842 20">
  <rect id="Rectangle_1970" data-name="Rectangle 1970" width="20" height="20" transform="translate(0.264)" fill="#7a49a0" opacity="0"/>
  <path id="chatbox-ellipses" d="M49.492,48H35.35A3.353,3.353,0,0,0,32,51.35v8.932a3.353,3.353,0,0,0,3.35,3.35h1.117v2.977a.744.744,0,0,0,1.221.572l4.256-3.549h7.549a3.353,3.353,0,0,0,3.35-3.35V51.35A3.353,3.353,0,0,0,49.492,48ZM37.955,57.3a1.489,1.489,0,1,1,1.489-1.489A1.489,1.489,0,0,1,37.955,57.3Zm4.466,0a1.489,1.489,0,1,1,1.489-1.489A1.489,1.489,0,0,1,42.421,57.3Zm4.466,0a1.489,1.489,0,1,1,1.489-1.489A1.489,1.489,0,0,1,46.887,57.3Z" transform="translate(-32 -47.716)" fill="#7a49a0"/>
</svg>
