<svg xmlns="http://www.w3.org/2000/svg" width="100%" height="100%" viewBox="0 0 180.846 41.699">
	<defs>
		<style>
			.a{fill:#7a49a0;}
		</style>
	</defs>
	<g transform="translate(0.004 0.001)">
		<path class="a" d="M14.8,37.376H25.21V64.965h9.157V37.376H44.876V29.8H14.8Z" transform="translate(-14.804 -26.089)" />
		<path class="a" d="M34.265,36.176a3.919,3.919,0,0,0,4.052-4.063,4.053,4.053,0,1,0-8.105,0,3.92,3.92,0,0,0,4.054,4.063Z" transform="translate(1.467 -28.001)" />
		<rect class="a" width="8.858" height="27.138" transform="translate(31.277 11.738)" />
		<path class="a" d="M49.716,54.067c-3.2,0-5.4-2.609-5.4-6.571,0-3.913,2.2-6.573,5.4-6.573a6.2,6.2,0,0,1,5.305,2.811l6.454-3.762c-2.352-4.063-6.656-6.421-12.109-6.421-8.407,0-14.012,5.568-14.012,14,0,8.277,5.554,13.744,13.912,13.744,5.756,0,10.158-2.357,12.311-6.522l-6.555-3.76A5.565,5.565,0,0,1,49.716,54.067Z" transform="translate(6.883 -22.113)" />
		<path class="a" d="M76.686,38.885H66.578l-8.657,9.18V28.8H49.014V66.022h8.907V58.647l2.753-2.86,5.7,10.233H76.886L66.778,49.368Z" transform="translate(21.301 -27.146)" />
		<rect class="a" width="8.858" height="27.138" transform="translate(99.243 11.738)" />
		<path class="a" d="M67.328,36.176a3.92,3.92,0,0,0,4.054-4.063,4.053,4.053,0,1,0-8.105,0,3.919,3.919,0,0,0,4.051,4.063Z" transform="translate(36.367 -28.001)" />
		<path class="a" d="M102.7,57.214c-1.552.052-2.454-.853-2.454-2.858V44.122h7.007V38.2h-7.007V30.679H91.4V38.2H80.885V30.679H72.027V38.2H68.273v5.919h3.754V55.761c0,5.619,3.8,8.729,9.057,8.679a14.873,14.873,0,0,0,7.305-1.807l-1.7-6.32a9.328,9.328,0,0,1-3.352.9c-1.552.052-2.452-.853-2.452-2.858V44.122H91.395V55.76c0,5.619,3.8,8.729,9.057,8.679a14.873,14.873,0,0,0,7.305-1.807l-1.7-6.32A9.33,9.33,0,0,1,102.7,57.214Z" transform="translate(41.63 -25.161)" />
		<path class="a" d="M103.176,32.919c-9.291,0-15.4,5.755-15.4,14.44a13.909,13.909,0,0,0,4.738,10.968l-.2-.1v6.256l5.877-3.253a19.407,19.407,0,0,0,4.983.624c9.291,0,15.451-5.757,15.451-14.5C118.626,38.674,112.467,32.919,103.176,32.919Zm0,21.609c-3.6,0-6.053-2.825-6.053-7.064,0-4.185,2.452-7.012,6.053-7.012,3.655,0,6.107,2.827,6.107,7.012C109.282,51.7,106.83,54.528,103.176,54.528Z" transform="translate(62.215 -22.786)" />
	</g>
</svg>
