<svg id="Icon_-_Mail" data-name="Icon - Mail" xmlns="http://www.w3.org/2000/svg" width="100%" height="15.033" viewBox="0 0 19.434 15.033">
	<rect id="Rectangle_2009" data-name="Rectangle 2009" width="19" height="15" transform="translate(0.434 0.033)" fill="#7a49a0" opacity="0" />
	<path id="mail" d="M48.619,80H34.374A2.377,2.377,0,0,0,32,82.374V92.549a2.377,2.377,0,0,0,2.374,2.374H48.619a2.377,2.377,0,0,0,2.374-2.374V82.374A2.377,2.377,0,0,0,48.619,80Zm-.6,3.927-6.1,4.748a.678.678,0,0,1-.833,0l-6.1-4.748a.678.678,0,1,1,.833-1.071L41.5,87.281l5.689-4.424a.678.678,0,1,1,.833,1.071Z" transform="translate(-32 -80)" fill="#7a49a0" />
</svg>
