<svg xmlns="http://www.w3.org/2000/svg" width="100%" height="100%" viewBox="0 0 23.874 22.396">
	<defs>
		<style>
			.a{fill:#fff;}
		</style>
	</defs>
	<path class="a" d="M20.891,23.824V18.089A2.082,2.082,0,0,0,18.807,16H13.074a1.428,1.428,0,0,0-1,.415L.612,27.871a2.092,2.092,0,0,0,0,2.953L6.067,36.28a2.091,2.091,0,0,0,2.953,0L20.477,24.827A1.427,1.427,0,0,0,20.891,23.824Zm-4.476-1.856a1.492,1.492,0,1,1,1.492-1.492A1.492,1.492,0,0,1,16.415,21.969Z" transform="translate(-0.002 -16)" />
	<path class="a" d="M226.873,64a.746.746,0,0,0-.746.746v5.939L213.942,82.87A.746.746,0,1,0,215,83.925l12.217-12.217a1.391,1.391,0,0,0,.405-.994V64.746A.746.746,0,0,0,226.873,64Z" transform="translate(-203.745 -61.762)" />
</svg>
