<svg id="Icon_-_Processing" data-name="Icon - Processing" xmlns="http://www.w3.org/2000/svg" width="100%" height="100%" viewBox="0 0 26.688 26.688">
	<rect id="Rectangle_2059" data-name="Rectangle 2059" width="26" height="26" transform="translate(0.344 0.344)" fill="#7a49a0" opacity="0" />
	<path id="sync-circle" d="M61.344,48A13.344,13.344,0,1,0,74.688,61.344,13.345,13.345,0,0,0,61.344,48Zm5.369,18.133A7.2,7.2,0,0,1,54.2,62.2a1.026,1.026,0,0,1-1.291-1.583L54.426,59.1a1.026,1.026,0,0,1,1.435-.016L57.444,60.6a1.026,1.026,0,0,1-1.155,1.668,5.148,5.148,0,0,0,8.9,2.491,1.026,1.026,0,0,1,1.525,1.374Zm3.064-4.064-1.514,1.514a1.026,1.026,0,0,1-1.435.016l-1.583-1.514a1.026,1.026,0,0,1,1.134-1.675,5.143,5.143,0,0,0-8.885-2.49,1.027,1.027,0,0,1-1.528-1.371,7.2,7.2,0,0,1,12.5,3.95,1.026,1.026,0,0,1,1.308,1.57Z" transform="translate(-48 -48)" fill="#7a49a0" />
</svg>
