<svg id="Icon_-_Settings" data-name="Icon - Settings" xmlns="http://www.w3.org/2000/svg" width="100%" height="100%" viewBox="0 0 21.763 23">
  <rect id="Rectangle_1967" data-name="Rectangle 1967" width="21" height="23" transform="translate(0.458)" fill="#7a49a0" opacity="0"/>
  <path id="settings-sharp" d="M42.9,33.287a3.887,3.887,0,1,0,3.887,3.887A3.887,3.887,0,0,0,42.9,33.287Zm8.391,3.887a8.041,8.041,0,0,1-.08,1.085l2.365,1.852a.563.563,0,0,1,.128.718l-2.238,3.863a.565.565,0,0,1-.687.24L48,43.814a8.578,8.578,0,0,1-1.886,1.1L45.7,47.869a.58.58,0,0,1-.559.479H40.663a.583.583,0,0,1-.559-.463l-.416-2.953a8.225,8.225,0,0,1-1.886-1.1L35.02,44.947a.565.565,0,0,1-.687-.239L32.1,40.845a.563.563,0,0,1,.128-.718l2.365-1.852a8.482,8.482,0,0,1-.08-1.1,8.042,8.042,0,0,1,.08-1.085l-2.365-1.852a.563.563,0,0,1-.128-.718l2.238-3.863a.565.565,0,0,1,.687-.24L37.8,30.533a8.578,8.578,0,0,1,1.886-1.1l.416-2.953A.58.58,0,0,1,40.663,26h4.475a.583.583,0,0,1,.559.463l.416,2.953A8.225,8.225,0,0,1,48,30.518L50.78,29.4a.565.565,0,0,1,.687.239L53.7,33.5a.563.563,0,0,1-.128.718l-2.365,1.852a8.482,8.482,0,0,1,.08,1.1Z" transform="translate(-32.019 -25.663)" fill="#7a49a0"/>
</svg>
