<svg xmlns="http://www.w3.org/2000/svg" width="100%" height="100%" viewBox="0 0 86.688 86.688"><defs><style>.a{fill:#7a49a0;}</style></defs><path class="a" d="M91.344,48a43.344,43.344,0,1,0,43.344,43.344A43.346,43.346,0,0,0,91.344,48Zm17.44,58.9A23.389,23.389,0,0,1,68.149,94.128a3.334,3.334,0,0,1-4.195-5.141l4.918-4.918a3.334,3.334,0,0,1,4.662-.052l5.141,4.918a3.334,3.334,0,0,1-3.751,5.418,16.723,16.723,0,0,0,28.907,8.092,3.334,3.334,0,0,1,4.953,4.462Zm9.952-13.2-4.918,4.918a3.334,3.334,0,0,1-4.662.052l-5.141-4.918a3.334,3.334,0,0,1,3.684-5.441,16.706,16.706,0,0,0-28.859-8.087,3.334,3.334,0,1,1-4.964-4.453,23.375,23.375,0,0,1,40.61,12.83,3.334,3.334,0,0,1,4.249,5.1Z" transform="translate(-48 -48)"/></svg>