<svg xmlns="http://www.w3.org/2000/svg" xmlns:xlink="http://www.w3.org/1999/xlink" width="100%" height="100%" viewBox="0 0 100 100">
	<defs>
		<clipPath id="clip-Artboard_1">
			<rect width="100" height="100" />
		</clipPath>
	</defs>
	<g id="Artboard_1" data-name="Artboard – 1" clip-path="url(#clip-Artboard_1)">
		<rect width="100" height="100" fill="transparent" />
		<path id="Compound_Path" data-name="Compound Path" d="M64.708,5.9a3.326,3.326,0,0,1,4.661,0l9.21,9.221a3.336,3.336,0,0,1,.444,4.222A8.327,8.327,0,0,0,90.564,30.891a3.326,3.326,0,0,1,4.217.444l9.21,9.11a3.335,3.335,0,0,1,0,4.666L45.177,103.99a3.326,3.326,0,0,1-4.661,0l-8.323-8.332a3.336,3.336,0,0,1-.222-4.444A8.327,8.327,0,0,0,20.209,79.549a3.326,3.326,0,0,1-4.439-.222L5.894,69.44a3.335,3.335,0,0,1,0-4.666ZM32.194,63.108,46.842,77.772a3.326,3.326,0,0,0,4.661,0L77.691,51.554a3.335,3.335,0,0,0,0-4.666L63.043,32.224a3.326,3.326,0,0,0-4.661,0L32.194,58.442A3.335,3.335,0,0,0,32.194,63.108Z" transform="translate(-4.942 -4.942)" fill="#7a49a0" />
	</g>
</svg>
