<svg id="Icon_-_User" data-name="Icon - User" xmlns="http://www.w3.org/2000/svg" width="100%" height="100%" viewBox="0 0 34.135 34.459">
	<rect id="Rectangle_2036" data-name="Rectangle 2036" width="34" height="34" transform="translate(0 0.459)" fill="#7a49a0" opacity="0" />
	<path id="person-circle" d="M65.067,48A17.067,17.067,0,1,0,82.135,65.067,17.087,17.087,0,0,0,65.067,48Zm-4.121,9.586a5.8,5.8,0,0,1,8.233.01,5.507,5.507,0,0,1,1.451,4.252c-.243,3.22-2.737,5.846-5.562,5.846s-5.325-2.626-5.562-5.846A5.529,5.529,0,0,1,60.947,57.586Zm4.121,21.923a14.4,14.4,0,0,1-10.339-4.367A10.085,10.085,0,0,1,57.612,72.4a14.4,14.4,0,0,1,14.909,0,10.082,10.082,0,0,1,2.886,2.744,14.4,14.4,0,0,1-10.339,4.367Z" transform="translate(-48 -48)" fill="#7a49a0" />
</svg>
