<svg xmlns="http://www.w3.org/2000/svg" width="100%" height="100%" viewBox="0 0 51.374 31.162">
	<defs>
		<style>
			.a{fill:#7a49a0;}
		</style>
	</defs>
	<g transform="translate(0 0)">
		<g transform="translate(0 0)">
			<path class="a" d="M49.172,88.908H2.2A2.206,2.206,0,0,0,0,91.118V117.86a2.206,2.206,0,0,0,2.2,2.21H49.172a2.206,2.206,0,0,0,2.2-2.21V91.118A2.206,2.206,0,0,0,49.172,88.908Zm-1.431,27.515H3.632V92.555H47.742v23.868Z" transform="translate(0 -88.908)" />
			<path class="a" d="M290.01,186.639a.342.342,0,0,0,.288.156h2.462a.343.343,0,0,0,.321-.222c.3-.8.5-1.312.561-1.477l1.73,0h.046l2.158,0h0c.07.3.243,1.1.315,1.424a.343.343,0,0,0,.335.271h2.147a.343.343,0,0,0,.268-.129.347.347,0,0,0,.068-.29l-2.335-10.62a.343.343,0,0,0-.335-.27h-2.1a1.523,1.523,0,0,0-1.609.939l-4.347,9.886A.346.346,0,0,0,290.01,186.639Zm6.149-8.1.208.977.711,3.266h-2.552Z" transform="translate(-256.791 -165.544)" />
			<path class="a" d="M215.6,186.3a10.027,10.027,0,0,0,3.026.474h0c3.11,0,5.133-1.464,5.155-3.728.012-1.245-.779-2.186-2.479-2.959-1.041-.508-1.679-.845-1.673-1.361,0-.464.583-.934,1.7-.934h.09a5.378,5.378,0,0,1,2,.371.343.343,0,0,0,.461-.264l.278-1.64a.345.345,0,0,0-.234-.386,7.818,7.818,0,0,0-2.37-.359c-2.931,0-4.989,1.48-5.006,3.6-.019,1.569,1.472,2.444,2.595,2.966,1.152.534,1.539.875,1.534,1.353-.008.732-.924,1.065-1.771,1.065a6.233,6.233,0,0,1-2.775-.566.343.343,0,0,0-.47.26l-.294,1.726A.345.345,0,0,0,215.6,186.3Z" transform="translate(-190.738 -165.57)" />
			<path class="a" d="M65.357,175.877a10.018,10.018,0,0,1,4.65,3.259.343.343,0,0,0,.609-.28l-.572-2.715,0-.017a1.253,1.253,0,0,0-1.329-.91H68.7l-3.224-.005h0a.345.345,0,0,0-.116.668Z" transform="translate(-57.68 -165.298)" />
			<path class="a" d="M170.528,186.58a.342.342,0,0,0,.262.122h2.375a.343.343,0,0,0,.338-.287l1.8-10.627a.344.344,0,0,0-.338-.4h-2.377a.343.343,0,0,0-.338.287l-1.8,10.627A.346.346,0,0,0,170.528,186.58Z" transform="translate(-150.953 -165.456)" />
			<path class="a" d="M83.909,177.906a.343.343,0,0,0-.538.37l2.4,8.243a.343.343,0,0,0,.329.248h0l2.767,0a.343.343,0,0,0,.315-.208l4.542-10.605a.344.344,0,0,0-.315-.481h-2.5a.343.343,0,0,0-.319.219l-2.923,7.5-.314-1.143A.33.33,0,0,0,87.34,182,11.724,11.724,0,0,0,83.909,177.906Z" transform="translate(-73.823 -165.528)" />
		</g>
	</g>
</svg>
