<svg id="Icon_-_WhatsApp" data-name="Icon - WhatsApp" xmlns="http://www.w3.org/2000/svg" width="100%" height="100%" viewBox="0 0 35.145 35">
	<rect id="Rectangle_2010" data-name="Rectangle 2010" width="35" height="35" fill="#fff" opacity="0" />
	<g id="whatsapp-logo" transform="translate(0.25)">
		<path id="WhatsApp" d="M34.9,17A17.159,17.159,0,0,1,9.484,31.881L0,34.895l3.092-9.12A16.819,16.819,0,0,1,.634,17,17.131,17.131,0,0,1,34.9,17ZM17.765,2.707A14.363,14.363,0,0,0,3.362,17a14.141,14.141,0,0,0,2.744,8.379l-1.8,5.308,5.535-1.759A14.417,14.417,0,0,0,32.168,17,14.364,14.364,0,0,0,17.765,2.707Zm8.651,18.206c-.106-.173-.385-.278-.8-.486s-2.485-1.217-2.869-1.355-.666-.209-.945.208-1.084,1.355-1.33,1.633-.49.314-.91.105A11.494,11.494,0,0,1,16.18,18.95a12.562,12.562,0,0,1-2.336-2.885c-.245-.417-.026-.642.184-.849.189-.187.42-.487.63-.73a2.793,2.793,0,0,0,.42-.7.759.759,0,0,0-.035-.73c-.1-.208-.945-2.258-1.295-3.093s-.7-.695-.944-.695-.525-.035-.8-.035a1.55,1.55,0,0,0-1.12.521,4.659,4.659,0,0,0-1.469,3.475,8.062,8.062,0,0,0,1.715,4.309c.21.278,2.9,4.622,7.173,6.29s4.269,1.111,5.039,1.041a4.247,4.247,0,0,0,2.835-1.98A3.473,3.473,0,0,0,26.415,20.913Z" fill="#25d366" />
	</g>
</svg>
