<svg xmlns="http://www.w3.org/2000/svg" width="100%" height="100%" viewBox="0 0 34.571 34.571">
	<defs>
		<style>
			.a{fill:#fff;}
		</style>
	</defs>
	<path class="a" d="M65.285,48A17.285,17.285,0,1,0,82.571,65.285,17.305,17.305,0,0,0,65.285,48Zm-4.173,9.708a5.876,5.876,0,0,1,8.338.01,5.577,5.577,0,0,1,1.469,4.306c-.246,3.261-2.772,5.92-5.634,5.92s-5.393-2.659-5.634-5.921A5.6,5.6,0,0,1,61.112,57.708Zm4.173,22.2a14.584,14.584,0,0,1-10.471-4.423,10.214,10.214,0,0,1,2.92-2.779,14.586,14.586,0,0,1,15.1,0,10.211,10.211,0,0,1,2.923,2.779,14.58,14.58,0,0,1-10.471,4.423Z" transform="translate(-48 -48)" />
</svg>
