<svg id="Icon_-_Check_Filled_" data-name="Icon - Check (Filled)" xmlns="http://www.w3.org/2000/svg" width="100%" height="100%" viewBox="0 0 25.202 25.202">
  <g id="Group_7342" data-name="Group 7342">
    <rect id="Rectangle_2012" data-name="Rectangle 2012" width="25" height="25" fill="#fff" opacity="0"/>
    <path id="Subtraction_4" data-name="Subtraction 4" d="M12.6,25.2a12.7,12.7,0,0,1-2.54-.256,12.532,12.532,0,0,1-4.506-1.9A12.638,12.638,0,0,1,.99,17.506,12.541,12.541,0,0,1,.256,15.14a12.724,12.724,0,0,1,0-5.079,12.531,12.531,0,0,1,1.9-4.506A12.638,12.638,0,0,1,7.7.99,12.544,12.544,0,0,1,10.061.256a12.724,12.724,0,0,1,5.079,0,12.532,12.532,0,0,1,4.506,1.9A12.638,12.638,0,0,1,24.211,7.7a12.538,12.538,0,0,1,.734,2.365,12.724,12.724,0,0,1,0,5.079,12.53,12.53,0,0,1-1.9,4.506,12.637,12.637,0,0,1-5.544,4.565,12.542,12.542,0,0,1-2.365.734A12.7,12.7,0,0,1,12.6,25.2ZM7.312,12.568a1.159,1.159,0,0,0-.826.349l-.038.039a1.2,1.2,0,0,0-.312.828,1.1,1.1,0,0,0,.351.8L9.6,17.68a.921.921,0,0,0,.361.261,1.173,1.173,0,0,0,.447.087,1.248,1.248,0,0,0,.884-.387l7.266-8.211V9.392a1.157,1.157,0,0,0,.274-.842,1.2,1.2,0,0,0-.389-.784,1.154,1.154,0,0,0-.759-.28,1.212,1.212,0,0,0-.895.4l-6.42,7.243-2.23-2.208A1.159,1.159,0,0,0,7.312,12.568Z" transform="translate(0)" fill="#7a49a0"/>
  </g>
</svg>
